<?xml version="1.0" encoding="UTF-8" standalone="no"?>
<svg
   xmlns:dc="http://purl.org/dc/elements/1.1/"
   xmlns:cc="http://creativecommons.org/ns#"
   xmlns:rdf="http://www.w3.org/1999/02/22-rdf-syntax-ns#"
   xmlns:svg="http://www.w3.org/2000/svg"
   xmlns="http://www.w3.org/2000/svg"
   xmlns:sodipodi="http://sodipodi.sourceforge.net/DTD/sodipodi-0.dtd"
   xmlns:inkscape="http://www.inkscape.org/namespaces/inkscape"
   width="50"
   height="47.02644"
   viewBox="0 0 49.999999 47.026439"
   id="svg2"
   version="1.1"
   inkscape:version="0.48.5 r10040"
   sodipodi:docname="Grab.svg">
  <metadata
     id="metadata10">
    <rdf:RDF>
      <cc:Work
         rdf:about="">
        <dc:format>image/svg+xml</dc:format>
        <dc:type
           rdf:resource="http://purl.org/dc/dcmitype/StillImage" />
        <dc:title />
      </cc:Work>
    </rdf:RDF>
  </metadata>
  <defs
     id="defs8" />
  <sodipodi:namedview
     pagecolor="#ffffff"
     bordercolor="#666666"
     borderopacity="1"
     objecttolerance="10"
     gridtolerance="10"
     guidetolerance="10"
     inkscape:pageopacity="0"
     inkscape:pageshadow="2"
     inkscape:window-width="1680"
     inkscape:window-height="987"
     id="namedview6"
     showgrid="false"
     inkscape:zoom="9.8333333"
     inkscape:cx="-33.322038"
     inkscape:cy="7.7089918"
     inkscape:window-x="-8"
     inkscape:window-y="-8"
     inkscape:window-maximized="1"
     inkscape:current-layer="svg2"
     fit-margin-top="0"
     fit-margin-left="0"
     fit-margin-right="0"
     fit-margin-bottom="0" />
  <path
     d="m 23.048013,2.8627103 c 3.533228,2.9e-4 4.88016,3.9179905 4.88016,3.9179905 0.241332,1.1216302 1.045483,1.7056301 1.832172,1.7056301 0.657577,0 1.302846,-0.40823 1.595707,-1.2510301 0.407659,-1.1725801 1.426804,-3.1739505 3.848134,-3.1736605 0.403649,0 0.84652,0.0558 1.331761,0.18007 3.841547,0.9847905 2.713615,4.1289706 2.273036,6.5093607 -0.17291,0.93469 1.163143,1.683311 2.082092,1.683311 0.321775,0 0.592306,-0.0919 0.729147,-0.29973 0.486098,-0.739461 1.137091,-1.536741 2.228379,-1.536741 0.476936,0 1.038326,0.1523 1.706783,0.52847 2.435929,1.37012 1.464878,5.478481 0.967042,6.72979 l -8.609775,25.375292 c -0.18923,0.55739 -0.712258,0.93212 -1.300556,0.93212 -5.73e-4,0 -0.0011,0 -0.0017,0 l -20.542346,-0.0246 C 14.434817,43.447912 2.3327498,28.197662 2.8801117,24.960441 c 0.1648948,-0.974489 1.9552705,-2.723069 3.7894469,-2.722779 0.2255859,0 0.4520311,0.0266 0.6758983,0.08421 2.1190218,0.545069 2.0485973,2.148789 3.6540391,3.450778 0.369298,0.29973 0.756628,0.435713 1.106173,0.435713 0.816748,0 1.425945,-0.744033 1.110755,-1.886281 -0.45375,-1.644376 -2.29594,-5.917345 -4.9565981,-11.743367 -0.4125251,-0.90349 -0.9006262,-4.4464504 1.5530525,-5.5277205 0.6967976,-0.3071701 1.3240296,-0.44516 1.8937216,-0.44516 1.805549,0 3.031098,1.3875901 4.049673,3.1776702 0.268526,0.5007003 0.703381,0.7119803 1.143388,0.7119803 0.764647,0 1.54475,-0.6386902 1.494366,-1.5084003 -0.09104,-1.5705102 -0.375882,-5.4939404 3.978961,-6.0785104 0.233316,-0.0312 0.458043,-0.0458 0.675042,-0.0458 M 23.048316,2.9294146e-7 c 0,0 0,0 0,0 -0.347254,0 -0.702523,0.0239999970585 -1.056362,0.0715999970585 -2.881663,0.386481 -4.98866,1.96329101 -5.933373,4.43958091 -0.0982,0.2576499 -0.180355,0.5150201 -0.248776,0.7703801 -1.025729,-0.8579802 -2.376383,-1.53846 -4.103491,-1.53846 -0.986225,0 -2.0119545,0.2316 -3.0482768,0.6882098 -1.4499921,0.63897 -2.5255332,1.7886601 -3.1101115,3.3251104 -0.8797278,2.3114005 -0.417678,4.8615495 0.1073609,6.0115305 1.0955802,2.398998 1.9501175,4.312759 2.6154246,5.83947 -0.069561,-0.02 -0.1402846,-0.03951 -0.2124169,-0.0581 -0.4494545,-0.115651 -0.9166585,-0.17435 -1.3887287,-0.17435 -1.4726076,-2.8e-4 -3.0036168,0.576852 -4.3113298,1.624621 -0.5954564,0.477229 -2.01166686,1.771768 -2.30109305,3.483419 -0.25335495,1.499801 0.32578305,3.342571 1.93723475,6.162681 1.3286112,2.32571 3.1015243,4.847531 4.3548437,6.553451 1.5622135,2.12675 3.2389362,4.24806 4.7209918,5.97259 2.44366,2.8433 3.25783,3.339421 3.8822,3.603659 0.351835,0.148862 0.730006,0.225872 1.112185,0.226442 l 20.542367,0.0246 c 1.821007,0 3.433034,-1.155411 4.016464,-2.874791 l 8.588305,-25.31145 c 1.157125,-2.978434 1.501515,-8.096773 -2.252719,-10.2086336 -1.056934,-0.5946001 -2.103276,-0.89605 -3.11011,-0.89605 -0.634105,0 -1.196638,0.1122196 -1.692184,0.2934299 0.03836,-0.6678801 0.008,-1.3615301 -0.14915,-2.0583302 -0.293434,-1.3005515 -1.301701,-3.6148118 -4.760497,-4.5017018 -0.697943,-0.17892 -1.385293,-0.26967 -2.042586,-0.26967 -1.856504,-2.9e-4 -3.504027,0.70825 -4.76479,2.04831 -0.236179,0.25106 -0.456613,0.52217 -0.661014,0.81274 -1.201791,-1.963 -3.406122,-4.05998000706 -6.730368,-4.060270007059 l 0,0 z"
     id="path4"
     style="fill:#261e58;fill-opacity:0.94509804"
     inkscape:connector-curvature="0" />
</svg>
