<?xml version="1.0" encoding="UTF-8" standalone="no"?>
<svg
   xmlns:dc="http://purl.org/dc/elements/1.1/"
   xmlns:cc="http://creativecommons.org/ns#"
   xmlns:rdf="http://www.w3.org/1999/02/22-rdf-syntax-ns#"
   xmlns:svg="http://www.w3.org/2000/svg"
   xmlns="http://www.w3.org/2000/svg"
   xmlns:sodipodi="http://sodipodi.sourceforge.net/DTD/sodipodi-0.dtd"
   xmlns:inkscape="http://www.inkscape.org/namespaces/inkscape"
   width="50.000004"
   height="50.85619"
   viewBox="0 0 50.000003 50.856189"
   id="svg2"
   version="1.1"
   inkscape:version="0.48.5 r10040"
   sodipodi:docname="Release.svg">
  <metadata
     id="metadata10">
    <rdf:RDF>
      <cc:Work
         rdf:about="">
        <dc:format>image/svg+xml</dc:format>
        <dc:type
           rdf:resource="http://purl.org/dc/dcmitype/StillImage" />
        <dc:title />
      </cc:Work>
    </rdf:RDF>
  </metadata>
  <defs
     id="defs8" />
  <sodipodi:namedview
     pagecolor="#ffffff"
     bordercolor="#666666"
     borderopacity="1"
     objecttolerance="10"
     gridtolerance="10"
     guidetolerance="10"
     inkscape:pageopacity="0"
     inkscape:pageshadow="2"
     inkscape:window-width="1680"
     inkscape:window-height="987"
     id="namedview6"
     showgrid="false"
     inkscape:zoom="9.8333333"
     inkscape:cx="1.1355895"
     inkscape:cy="7.4082738"
     inkscape:window-x="-8"
     inkscape:window-y="-8"
     inkscape:window-maximized="1"
     inkscape:current-layer="svg2"
     fit-margin-top="0"
     fit-margin-left="0"
     fit-margin-right="0"
     fit-margin-bottom="0" />
  <path
     d="m 24.740535,2.61345 c 1.708149,0 2.498978,1.6517 2.511784,3.12595 l 0.785341,16.802379 c -0.02823,1.05008 0.757116,1.61851 1.503517,1.61851 0.580447,0 1.137373,-0.34367 1.269875,-1.07204 0.236517,-1.30097 2.59045,-10.953219 3.034997,-13.2750095 0.204633,-1.06864 0.799193,-3.0279395 3.026636,-3.0276795 0.133809,0 0.273367,0.007 0.419197,0.0217 2.018628,0.20411 2.235282,2.6084795 2.018628,3.9369 -0.777763,4.769809 -2.656309,13.429989 -2.841864,14.432249 -0.134854,0.72758 0.722618,1.19094 1.425113,1.19094 0.358565,0 0.676622,-0.12074 0.802068,-0.38861 0.354906,-0.75738 2.386078,-4.8409 3.843859,-7.47421 0.700405,-1.26543 1.545855,-1.96818 2.568758,-1.96818 0.29924,0 0.613899,0.0601 0.944239,0.18424 1.400285,0.52505 1.560228,2.71067 1.105488,3.85327 l -9.058733,26.81607 c -0.172227,0.50963 -0.650226,0.85251 -1.187813,0.85251 -5.22e-4,0 -10e-4,0 -0.0016,0 l -17.721793,-0.0212 c -0.654146,-7.8e-4 -1.275624,-0.28591 -1.702662,-0.78142 L 3.0384613,30.68267 c -0.638988,-0.75607 -0.544643,-1.88743 0.211689,-2.52668 0,0 0.906606,-0.758691 2.268996,-0.758421 0.292184,0 0.605536,0.035 0.935353,0.11969 1.934474,0.497601 5.5250897,4.007461 6.9904507,5.196321 0.286173,0.23234 0.646828,0.33531 1.018461,0.33531 1.088762,0 2.2737,-0.88413 1.967142,-1.99406 C 16.016322,29.55366 10.698216,17.637379 8.2692773,12.31849 7.8926793,11.49369 7.2657143,8.6366695 9.5221643,7.6877195 9.9152273,7.52229 10.273008,7.45094 10.598643,7.45094 c 1.766953,0 2.583655,2.1103595 2.926278,2.80423 0,0 5.039774,11.150799 6.262868,13.300629 0.259516,0.48375 0.629841,0.69099 0.982657,0.69099 0.559539,0 1.07465,-0.5219 1.030221,-1.28921 -0.08311,-1.43374 -0.182419,-12.418579 -0.06481,-17.235949 0.03789,-1.53514 0.978737,-3.07943 2.967048,-3.10766 0.01228,-2.6e-4 0.02509,-5.2e-4 0.03763,-5.2e-4 m 0,-2.61345 c 0,0 0,0 0,0 l -0.07475,5.3e-4 c -3.132479,0.0447 -5.463413,2.42345 -5.542862,5.65654 -0.06168,2.5282495 -0.06508,6.76309 -0.04103,10.449619 -1.225708,-2.637239 -2.493491,-5.418989 -3.175601,-6.9279895 -0.01228,-0.0272 -0.02509,-0.0541 -0.03842,-0.081 -0.02404,-0.0486 -0.05096,-0.10637 -0.08102,-0.17092 C 15.31225,7.9153695 13.867797,4.83778 10.598634,4.83752 c -0.6902107,0 -1.3932287,0.14844 -2.0897127,0.44115 -1.331812,0.56006 -2.309242,1.55604 -2.825921,2.8800195 -0.795533,2.0377005 -0.24305,4.2560005 0.208815,5.2454505 2.089974,4.575889 5.0293187,11.176929 6.7160377,15.12768 -2.045284,-1.747611 -3.8893327,-3.130651 -5.5028747,-3.545661 -0.521383,-0.13407 -1.055049,-0.20202 -1.586364,-0.20202 -2.200262,0 -3.673201,1.1392 -3.946307,1.36762 -0.90895702,0.76809 -1.45830402,1.832551 -1.55656902,3.005981 -0.09827,1.17266 0.266049,2.31343 1.02577802,3.21219 0.0055,0.007 0.01098,0.0131 0.01673,0.0196 L 15.505388,49.146699 c 0.92307,1.07126 2.26403,1.68672 3.678951,1.68829 l 17.721793,0.0212 c 1.664767,0 3.136922,-1.05662 3.668498,-2.62939 l 9.0407,-26.76197 c 0.554574,-1.46014 0.507009,-3.31203 -0.126491,-4.74315 -0.514326,-1.1622 -1.409171,-2.03143 -2.519364,-2.44776 -0.620171,-0.232589 -1.246615,-0.350459 -1.86182,-0.350459 -1.164813,0 -2.745949,0.411099 -4.123759,2.193989 0.348895,-1.7876 0.673485,-3.533379 0.905037,-4.952479 0.118389,-0.72628 0.390972,-3.2459105 -1.077264,-5.16052 -0.798147,-1.04094 -1.924804,-1.66241 -3.257663,-1.79727 -0.230245,-0.0233 -0.459706,-0.035 -0.68211,-0.035 -2.884725,0 -4.975745,1.92507 -5.593303,5.1495395 C 31.124399,10.12745 30.716179,11.91348 30.24994,13.91355 L 29.864195,5.66185 C 29.812715,2.43032 27.617936,7e-5 24.74053,7e-5 l 0,0 z"
     id="path4"
     style="fill:#261e58;fill-opacity:0.94509804"
     inkscape:connector-curvature="0" />
</svg>
