<?xml version="1.0" encoding="UTF-8" standalone="no"?>
<!-- The icon can be used freely in both personal and commercial projects with no attribution required, but always appreciated. 
You may NOT sub-license, resell, rent, redistribute or otherwise transfer the icon without express written permission from iconmonstr.com -->

<svg
   xmlns:dc="http://purl.org/dc/elements/1.1/"
   xmlns:cc="http://creativecommons.org/ns#"
   xmlns:rdf="http://www.w3.org/1999/02/22-rdf-syntax-ns#"
   xmlns:svg="http://www.w3.org/2000/svg"
   xmlns="http://www.w3.org/2000/svg"
   xmlns:sodipodi="http://sodipodi.sourceforge.net/DTD/sodipodi-0.dtd"
   xmlns:inkscape="http://www.inkscape.org/namespaces/inkscape"
   version="1.1"
   x="0px"
   y="0px"
   width="28.343451"
   height="45"
   viewBox="0 0 28.343451 45"
   enable-background="new 0 0 512 512"
   xml:space="preserve"
   id="svg2"
   inkscape:version="0.48.5 r10040"
   sodipodi:docname="Delay.svg"><metadata
   id="metadata9"><rdf:RDF><cc:Work
       rdf:about=""><dc:format>image/svg+xml</dc:format><dc:type
         rdf:resource="http://purl.org/dc/dcmitype/StillImage" /></cc:Work></rdf:RDF></metadata><defs
   id="defs7" /><sodipodi:namedview
   pagecolor="#ffffff"
   bordercolor="#666666"
   borderopacity="1"
   objecttolerance="10"
   gridtolerance="10"
   guidetolerance="10"
   inkscape:pageopacity="0"
   inkscape:pageshadow="2"
   inkscape:window-width="1680"
   inkscape:window-height="987"
   id="namedview5"
   showgrid="false"
   fit-margin-top="0"
   fit-margin-left="0"
   fit-margin-right="0"
   fit-margin-bottom="0"
   inkscape:zoom="5.2149125"
   inkscape:cx="-28.311798"
   inkscape:cy="25.640445"
   inkscape:window-x="-8"
   inkscape:window-y="-8"
   inkscape:window-maximized="1"
   inkscape:current-layer="svg2" />
<path
   id="time-11-icon"
   d="M 28.34345,45 H 0 v -5.8263 c 0,-2.70022 0.9142,-5.36003 2.57417,-7.48955 l 5.54505,-7.11371 c 0.99524,-1.27671 0.98815,-3.05465 -0.0174,-4.3235 L 2.63455,13.34775 C 0.9356,11.20391 0,8.51691 0,5.78152 V 0 h 28.34345 v 5.78152 c 0,2.7355 -0.93561,5.4225 -2.63458,7.56623 l -5.46728,6.89919 c -1.00551,1.26885 -1.01261,3.04679 -0.0174,4.3235 l 5.54517,7.11371 c 1.65986,2.12963 2.57406,4.78944 2.57406,7.48955 V 45 z M 4.36893,39.53873 h 19.60558 c 0,-1.89765 -0.40456,-3.56964 -1.65102,-5.16856 l -5.54504,-7.11372 c -2.2382,-2.87136 -2.22226,-6.8697 0.039,-9.72306 l 5.46728,-6.89919 c 1.26689,-1.59849 1.6898,-3.29986 1.6898,-5.17293 H 4.36895 c 0,1.88585 0.42957,3.58275 1.68979,5.17293 l 5.46739,6.89919 c 2.26103,2.85346 2.27708,6.8517 0.0389,9.72306 l -5.54516,7.11372 c -1.25279,1.60733 -1.6509,3.28326 -1.6509,5.16856 z"
   inkscape:connector-curvature="0"
   style="fill:#261e58;fill-opacity:0.94509804" />
</svg>