<?xml version="1.0" encoding="UTF-8" standalone="no"?>
<svg
   xmlns:dc="http://purl.org/dc/elements/1.1/"
   xmlns:cc="http://creativecommons.org/ns#"
   xmlns:rdf="http://www.w3.org/1999/02/22-rdf-syntax-ns#"
   xmlns:svg="http://www.w3.org/2000/svg"
   xmlns="http://www.w3.org/2000/svg"
   xmlns:sodipodi="http://sodipodi.sourceforge.net/DTD/sodipodi-0.dtd"
   xmlns:inkscape="http://www.inkscape.org/namespaces/inkscape"
   width="50"
   height="50"
   viewBox="0 0 50 50"
   id="svg2"
   version="1.1"
   inkscape:version="0.48.5 r10040"
   sodipodi:docname="Start.svg">
  <metadata
     id="metadata10">
    <rdf:RDF>
      <cc:Work
         rdf:about="">
        <dc:format>image/svg+xml</dc:format>
        <dc:type
           rdf:resource="http://purl.org/dc/dcmitype/StillImage" />
      </cc:Work>
    </rdf:RDF>
  </metadata>
  <defs
     id="defs8" />
  <sodipodi:namedview
     pagecolor="#ffffff"
     bordercolor="#666666"
     borderopacity="1"
     objecttolerance="10"
     gridtolerance="10"
     guidetolerance="10"
     inkscape:pageopacity="0"
     inkscape:pageshadow="2"
     inkscape:window-width="1680"
     inkscape:window-height="987"
     id="namedview6"
     showgrid="false"
     inkscape:zoom="9.8333333"
     inkscape:cx="-23.644068"
     inkscape:cy="12"
     inkscape:window-x="-8"
     inkscape:window-y="-8"
     inkscape:window-maximized="1"
     inkscape:current-layer="svg2" />
  <rect
     style="fill:#badfe1;fill-opacity:1;stroke:none"
     id="rect2989"
     width="3.1525424"
     height="3.0508475"
     x="-49.525425"
     y="19.59322" />
  <rect
     style="fill:#007788;fill-opacity:1;stroke:none"
     id="rect2991"
     width="3.5593221"
     height="3.4576271"
     x="-50.237289"
     y="24.576271" />
  <path
     style="fill:#261e58;fill-opacity:0.94509804;stroke:none"
     d="m 16.59661,21.983051 0,-20.898305 2.135593,0 2.135594,0 0,1.423729 c 0,0.78305 0.02986,1.423728 0.06635,1.423728 0.03649,0 0.619969,-0.13447 1.296611,-0.298823 2.254524,-0.547611 4.370281,-0.633003 6.355093,-0.25649 1.685221,0.319681 2.842095,0.867211 5.15813,2.441262 1.72126,1.169824 2.850859,1.759415 3.876807,2.023492 0.86385,0.222352 2.690044,0.389886 3.433448,0.314983 2.014253,-0.202953 4.333784,-0.996549 5.79661,-1.983233 0.223729,-0.150906 0.463984,-0.307745 0.533899,-0.34853 0.10132,-0.05911 0.126938,1.861875 0.126229,9.465744 l -9.16e-4,9.5399 -0.583857,0.3736 c -1.348449,0.862851 -2.756508,1.426864 -4.402762,1.763573 -0.678623,0.138799 -1.179459,0.164728 -2.384483,0.123448 -2.31731,-0.07938 -3.235538,-0.390963 -6.034937,-2.047814 -3.303713,-1.955334 -4.392467,-2.371672 -6.799704,-2.600194 -1.922136,-0.182473 -3.398867,0.06317 -5.64841,0.939584 l -0.788109,0.307054 0,9.595798 0,9.595799 -2.135594,0 -2.135593,0 0,-20.898305 z m 25.383191,1.121847 c 0.341263,-0.08048 0.741687,-0.201559 0.889831,-0.269058 l 0.269351,-0.122724 0,-5.486082 c 0,-4.668354 -0.02129,-5.477915 -0.142798,-5.431286 -0.416957,0.160002 -2.37446,0.293726 -3.482371,0.237893 -2.820214,-0.142122 -5.054956,-0.95315 -8.018899,-2.9102 -2.341049,-1.545763 -3.785272,-2.036265 -6,-2.037788 -1.377963,-9.46e-4 -2.398207,0.20304 -3.940678,0.787897 l -0.68644,0.260278 0,5.639856 0,5.639857 0.228813,-0.05147 c 0.125848,-0.0283 0.777966,-0.191709 1.449153,-0.363119 1.543814,-0.394265 3.069401,-0.561606 4.372881,-0.479657 3.432384,0.215789 5.596021,0.936198 9.069405,3.019766 2.288342,1.372701 3.157016,1.698041 4.557714,1.706976 0.447457,0.0029 1.092775,-0.06066 1.434038,-0.141144 z"
     id="path3763"
     inkscape:connector-curvature="0" />
  <path
     style="fill:#726aa5;fill-opacity:1;stroke:none"
     d="M 15.569492,48.713947 C 11.351652,48.333477 7.6601764,47.308143 5.4224608,45.895535 4.765003,45.4805 3.9291077,44.650971 3.6481243,44.134712 3.5003565,43.863214 3.3503183,43.412938 3.3147059,43.134099 3.0488271,41.052313 5.992805,38.977648 10.814417,37.84894 c 0.600811,-0.140646 1.115642,-0.25572 1.144068,-0.25572 0.02843,0 0.05168,0.790658 0.05168,1.757018 l 0,1.757017 -1.003495,0.235475 c -1.2101334,0.283965 -2.4426665,0.865384 -2.6541637,1.252042 -0.2650045,0.48448 -0.06284,0.79073 0.8102016,1.227338 1.8283441,0.914356 4.8169731,1.330029 9.5593221,1.329557 4.777592,-4.78e-4 7.827661,-0.430855 9.682612,-1.366261 1.561406,-0.78738 0.817624,-1.752248 -1.857965,-2.410232 l -1.112058,-0.273479 -3.63e-4,-1.754237 c -1.99e-4,-0.964831 0.01322,-1.754238 0.02982,-1.754238 0.180204,0 2.066759,0.465353 2.817273,0.694931 2.948123,0.901815 4.894276,2.132922 5.653401,3.576256 0.125186,0.238017 0.187862,0.574917 0.189192,1.016949 0.0016,0.542888 -0.05141,0.757873 -0.296795,1.202997 -1.135052,2.058928 -4.867959,3.682806 -10.223764,4.447513 -1.124965,0.160623 -6.836696,0.290075 -8.033898,0.182081 z"
     id="path3765"
     inkscape:connector-curvature="0" />
</svg>
